<svg width="267" height="222" viewBox="0 0 267 222" fill="none"
    xmlns="http://www.w3.org/2000/svg">
    <rect width="267" height="222" rx="66" fill="#5D79D4"/>
    <path d="M48.6387 103.143V85.4062H53.8945V103.143C53.8945 104.854 53.5195 106.324 52.7695 107.555C52.0195 108.773 50.9941 109.711 49.6934 110.367C48.4043 111.023 46.9512 111.352 45.334 111.352C43.6582 111.352 42.1758 111.07 40.8867 110.508C39.5977 109.945 38.584 109.084 37.8457 107.924C37.1074 106.752 36.7383 105.27 36.7383 103.477H42.0293C42.0293 104.414 42.1582 105.158 42.416 105.709C42.6855 106.26 43.0664 106.652 43.5586 106.887C44.0508 107.121 44.6426 107.238 45.334 107.238C46.002 107.238 46.582 107.08 47.0742 106.764C47.5664 106.447 47.9473 105.984 48.2168 105.375C48.498 104.766 48.6387 104.021 48.6387 103.143ZM57.2695 101.684V101.314C57.2695 99.9199 57.4688 98.6367 57.8672 97.4648C58.2656 96.2812 58.8457 95.2559 59.6074 94.3887C60.3691 93.5215 61.3066 92.8477 62.4199 92.3672C63.5332 91.875 64.8105 91.6289 66.252 91.6289C67.6934 91.6289 68.9766 91.875 70.1016 92.3672C71.2266 92.8477 72.1699 93.5215 72.9316 94.3887C73.7051 95.2559 74.291 96.2812 74.6895 97.4648C75.0879 98.6367 75.2871 99.9199 75.2871 101.314V101.684C75.2871 103.066 75.0879 104.35 74.6895 105.533C74.291 106.705 73.7051 107.73 72.9316 108.609C72.1699 109.477 71.2324 110.15 70.1191 110.631C69.0059 111.111 67.7285 111.352 66.2871 111.352C64.8457 111.352 63.5625 111.111 62.4375 110.631C61.3242 110.15 60.3809 109.477 59.6074 108.609C58.8457 107.73 58.2656 106.705 57.8672 105.533C57.4688 104.35 57.2695 103.066 57.2695 101.684ZM62.332 101.314V101.684C62.332 102.48 62.4023 103.225 62.543 103.916C62.6836 104.607 62.9062 105.217 63.2109 105.744C63.5273 106.26 63.9375 106.664 64.4414 106.957C64.9453 107.25 65.5605 107.396 66.2871 107.396C66.9902 107.396 67.5938 107.25 68.0977 106.957C68.6016 106.664 69.0059 106.26 69.3105 105.744C69.6152 105.217 69.8379 104.607 69.9785 103.916C70.1309 103.225 70.207 102.48 70.207 101.684V101.314C70.207 100.541 70.1309 99.8145 69.9785 99.1348C69.8379 98.4434 69.6094 97.834 69.293 97.3066C68.9883 96.7676 68.584 96.3457 68.0801 96.041C67.5762 95.7363 66.9668 95.584 66.252 95.584C65.5371 95.584 64.9277 95.7363 64.4238 96.041C63.9316 96.3457 63.5273 96.7676 63.2109 97.3066C62.9062 97.834 62.6836 98.4434 62.543 99.1348C62.4023 99.8145 62.332 100.541 62.332 101.314ZM78.3984 84H83.4609V106.641L82.9512 111H78.3984V84ZM95.502 101.297V101.666C95.502 103.084 95.3496 104.385 95.0449 105.568C94.752 106.752 94.2949 107.777 93.6738 108.645C93.0527 109.5 92.2793 110.168 91.3535 110.648C90.4395 111.117 89.3613 111.352 88.1191 111.352C86.959 111.352 85.9512 111.117 85.0957 110.648C84.252 110.18 83.543 109.518 82.9688 108.662C82.3945 107.807 81.9316 106.805 81.5801 105.656C81.2285 104.508 80.9648 103.254 80.7891 101.895V101.086C80.9648 99.7266 81.2285 98.4727 81.5801 97.3242C81.9316 96.1758 82.3945 95.1738 82.9688 94.3184C83.543 93.4629 84.252 92.8008 85.0957 92.332C85.9395 91.8633 86.9355 91.6289 88.084 91.6289C89.3379 91.6289 90.4277 91.8691 91.3535 92.3496C92.291 92.8184 93.0645 93.4863 93.6738 94.3535C94.2949 95.209 94.752 96.2285 95.0449 97.4121C95.3496 98.584 95.502 99.8789 95.502 101.297ZM90.4395 101.666V101.297C90.4395 100.523 90.3809 99.7969 90.2637 99.1172C90.1582 98.4258 89.9707 97.8223 89.7012 97.3066C89.4316 96.7793 89.0625 96.3633 88.5938 96.0586C88.1367 95.7539 87.5449 95.6016 86.8184 95.6016C86.127 95.6016 85.541 95.7188 85.0605 95.9531C84.5801 96.1875 84.1816 96.5156 83.8652 96.9375C83.5605 97.3594 83.332 97.8633 83.1797 98.4492C83.0273 99.0234 82.9336 99.6562 82.8984 100.348V102.65C82.9336 103.576 83.0859 104.396 83.3555 105.111C83.6367 105.814 84.0586 106.371 84.6211 106.781C85.1953 107.18 85.9395 107.379 86.8535 107.379C87.5684 107.379 88.1602 107.238 88.6289 106.957C89.0977 106.676 89.4609 106.277 89.7188 105.762C89.9883 105.246 90.1758 104.643 90.2812 103.951C90.3867 103.248 90.4395 102.486 90.4395 101.666ZM109.318 103.143V85.4062H114.574V103.143C114.574 104.854 114.199 106.324 113.449 107.555C112.699 108.773 111.674 109.711 110.373 110.367C109.084 111.023 107.631 111.352 106.014 111.352C104.338 111.352 102.855 111.07 101.566 110.508C100.277 109.945 99.2637 109.084 98.5254 107.924C97.7871 106.752 97.418 105.27 97.418 103.477H102.709C102.709 104.414 102.838 105.158 103.096 105.709C103.365 106.26 103.746 106.652 104.238 106.887C104.73 107.121 105.322 107.238 106.014 107.238C106.682 107.238 107.262 107.08 107.754 106.764C108.246 106.447 108.627 105.984 108.896 105.375C109.178 104.766 109.318 104.021 109.318 103.143ZM117.949 101.684V101.314C117.949 99.9199 118.148 98.6367 118.547 97.4648C118.945 96.2812 119.525 95.2559 120.287 94.3887C121.049 93.5215 121.986 92.8477 123.1 92.3672C124.213 91.875 125.49 91.6289 126.932 91.6289C128.373 91.6289 129.656 91.875 130.781 92.3672C131.906 92.8477 132.85 93.5215 133.611 94.3887C134.385 95.2559 134.971 96.2812 135.369 97.4648C135.768 98.6367 135.967 99.9199 135.967 101.314V101.684C135.967 103.066 135.768 104.35 135.369 105.533C134.971 106.705 134.385 107.73 133.611 108.609C132.85 109.477 131.912 110.15 130.799 110.631C129.686 111.111 128.408 111.352 126.967 111.352C125.525 111.352 124.242 111.111 123.117 110.631C122.004 110.15 121.061 109.477 120.287 108.609C119.525 107.73 118.945 106.705 118.547 105.533C118.148 104.35 117.949 103.066 117.949 101.684ZM123.012 101.314V101.684C123.012 102.48 123.082 103.225 123.223 103.916C123.363 104.607 123.586 105.217 123.891 105.744C124.207 106.26 124.617 106.664 125.121 106.957C125.625 107.25 126.24 107.396 126.967 107.396C127.67 107.396 128.273 107.25 128.777 106.957C129.281 106.664 129.686 106.26 129.99 105.744C130.295 105.217 130.518 104.607 130.658 103.916C130.811 103.225 130.887 102.48 130.887 101.684V101.314C130.887 100.541 130.811 99.8145 130.658 99.1348C130.518 98.4434 130.289 97.834 129.973 97.3066C129.668 96.7676 129.264 96.3457 128.76 96.041C128.256 95.7363 127.646 95.584 126.932 95.584C126.217 95.584 125.607 95.7363 125.104 96.041C124.611 96.3457 124.207 96.7676 123.891 97.3066C123.586 97.834 123.363 98.4434 123.223 99.1348C123.082 99.8145 123.012 100.541 123.012 101.314ZM150.328 106.447V91.9805H155.391V111H150.627L150.328 106.447ZM150.891 102.545L152.385 102.51C152.385 103.775 152.238 104.953 151.945 106.043C151.652 107.121 151.213 108.059 150.627 108.855C150.041 109.641 149.303 110.256 148.412 110.701C147.521 111.135 146.473 111.352 145.266 111.352C144.34 111.352 143.484 111.223 142.699 110.965C141.926 110.695 141.258 110.279 140.695 109.717C140.145 109.143 139.711 108.41 139.395 107.52C139.09 106.617 138.938 105.533 138.938 104.268V91.9805H144V104.303C144 104.865 144.064 105.34 144.193 105.727C144.334 106.113 144.527 106.43 144.773 106.676C145.02 106.922 145.307 107.098 145.635 107.203C145.975 107.309 146.35 107.361 146.76 107.361C147.803 107.361 148.623 107.15 149.221 106.729C149.83 106.307 150.258 105.732 150.504 105.006C150.762 104.268 150.891 103.447 150.891 102.545ZM164.32 96.1289V111H159.258V91.9805H164.021L164.32 96.1289ZM170.051 91.8574L169.963 96.5508C169.717 96.5156 169.418 96.4863 169.066 96.4629C168.727 96.4277 168.416 96.4102 168.135 96.4102C167.42 96.4102 166.799 96.5039 166.271 96.6914C165.756 96.8672 165.322 97.1309 164.971 97.4824C164.631 97.834 164.373 98.2617 164.197 98.7656C164.033 99.2695 163.939 99.8438 163.916 100.488L162.896 100.172C162.896 98.9414 163.02 97.8105 163.266 96.7793C163.512 95.7363 163.869 94.8281 164.338 94.0547C164.818 93.2812 165.404 92.6836 166.096 92.2617C166.787 91.8398 167.578 91.6289 168.469 91.6289C168.75 91.6289 169.037 91.6523 169.33 91.6992C169.623 91.7344 169.863 91.7871 170.051 91.8574ZM177.398 96.041V111H172.336V91.9805H177.082L177.398 96.041ZM176.66 100.822H175.289C175.289 99.416 175.471 98.1504 175.834 97.0254C176.197 95.8887 176.707 94.9219 177.363 94.125C178.02 93.3164 178.799 92.7012 179.701 92.2793C180.615 91.8457 181.635 91.6289 182.76 91.6289C183.65 91.6289 184.465 91.7578 185.203 92.0156C185.941 92.2734 186.574 92.6836 187.102 93.2461C187.641 93.8086 188.051 94.5527 188.332 95.4785C188.625 96.4043 188.771 97.5352 188.771 98.8711V111H183.674V98.8535C183.674 98.0098 183.557 97.3535 183.322 96.8848C183.088 96.416 182.742 96.0879 182.285 95.9004C181.84 95.7012 181.289 95.6016 180.633 95.6016C179.953 95.6016 179.361 95.7363 178.857 96.0059C178.365 96.2754 177.955 96.6504 177.627 97.1309C177.311 97.5996 177.07 98.1504 176.906 98.7832C176.742 99.416 176.66 100.096 176.66 100.822ZM201.375 111.352C199.898 111.352 198.574 111.117 197.402 110.648C196.23 110.168 195.234 109.506 194.414 108.662C193.605 107.818 192.984 106.84 192.551 105.727C192.117 104.602 191.9 103.406 191.9 102.141V101.438C191.9 99.9961 192.105 98.6777 192.516 97.4824C192.926 96.2871 193.512 95.25 194.273 94.3711C195.047 93.4922 195.984 92.8184 197.086 92.3496C198.188 91.8691 199.43 91.6289 200.812 91.6289C202.16 91.6289 203.355 91.8516 204.398 92.2969C205.441 92.7422 206.314 93.375 207.018 94.1953C207.732 95.0156 208.271 96 208.635 97.1484C208.998 98.2852 209.18 99.5508 209.18 100.945V103.055H194.062V99.6797H204.205V99.293C204.205 98.5898 204.076 97.9629 203.818 97.4121C203.572 96.8496 203.197 96.4043 202.693 96.0762C202.189 95.748 201.545 95.584 200.76 95.584C200.092 95.584 199.518 95.7305 199.037 96.0234C198.557 96.3164 198.164 96.7266 197.859 97.2539C197.566 97.7812 197.344 98.4023 197.191 99.1172C197.051 99.8203 196.98 100.594 196.98 101.438V102.141C196.98 102.902 197.086 103.605 197.297 104.25C197.52 104.895 197.83 105.451 198.229 105.92C198.639 106.389 199.131 106.752 199.705 107.01C200.291 107.268 200.953 107.396 201.691 107.396C202.605 107.396 203.455 107.221 204.24 106.869C205.037 106.506 205.723 105.961 206.297 105.234L208.758 107.906C208.359 108.48 207.814 109.031 207.123 109.559C206.443 110.086 205.623 110.52 204.662 110.859C203.701 111.188 202.605 111.352 201.375 111.352ZM217.459 108.855L222.504 91.9805H227.936L220.289 113.865C220.125 114.346 219.902 114.861 219.621 115.412C219.352 115.963 218.982 116.484 218.514 116.977C218.057 117.48 217.477 117.891 216.773 118.207C216.082 118.523 215.232 118.682 214.225 118.682C213.744 118.682 213.352 118.652 213.047 118.594C212.742 118.535 212.379 118.453 211.957 118.348V114.639C212.086 114.639 212.221 114.639 212.361 114.639C212.502 114.65 212.637 114.656 212.766 114.656C213.434 114.656 213.979 114.58 214.4 114.428C214.822 114.275 215.162 114.041 215.42 113.725C215.678 113.42 215.883 113.021 216.035 112.529L217.459 108.855ZM215.35 91.9805L219.48 105.762L220.201 111.123L216.756 111.492L209.918 91.9805H215.35Z" fill="#F5F5F5"/>
</svg>
