<svg width="264" height="161" viewBox="0 0 264 161" fill="none"
    xmlns="http://www.w3.org/2000/svg">
    <path d="M117 0L218.325 120.75H15.675L117 0Z" fill="#7C9ADE"/>
    <path d="M82.6387 80.1426V62.4062H87.8945V80.1426C87.8945 81.8535 87.5195 83.3242 86.7695 84.5547C86.0195 85.7734 84.9941 86.7109 83.6934 87.3672C82.4043 88.0234 80.9512 88.3516 79.334 88.3516C77.6582 88.3516 76.1758 88.0703 74.8867 87.5078C73.5977 86.9453 72.584 86.084 71.8457 84.9238C71.1074 83.752 70.7383 82.2695 70.7383 80.4766H76.0293C76.0293 81.4141 76.1582 82.1582 76.416 82.709C76.6855 83.2598 77.0664 83.6523 77.5586 83.8867C78.0508 84.1211 78.6426 84.2383 79.334 84.2383C80.002 84.2383 80.582 84.0801 81.0742 83.7637C81.5664 83.4473 81.9473 82.9844 82.2168 82.375C82.498 81.7656 82.6387 81.0215 82.6387 80.1426ZM91.2695 78.6836V78.3145C91.2695 76.9199 91.4688 75.6367 91.8672 74.4648C92.2656 73.2812 92.8457 72.2559 93.6074 71.3887C94.3691 70.5215 95.3066 69.8477 96.4199 69.3672C97.5332 68.875 98.8105 68.6289 100.252 68.6289C101.693 68.6289 102.977 68.875 104.102 69.3672C105.227 69.8477 106.17 70.5215 106.932 71.3887C107.705 72.2559 108.291 73.2812 108.689 74.4648C109.088 75.6367 109.287 76.9199 109.287 78.3145V78.6836C109.287 80.0664 109.088 81.3496 108.689 82.5332C108.291 83.7051 107.705 84.7305 106.932 85.6094C106.17 86.4766 105.232 87.1504 104.119 87.6309C103.006 88.1113 101.729 88.3516 100.287 88.3516C98.8457 88.3516 97.5625 88.1113 96.4375 87.6309C95.3242 87.1504 94.3809 86.4766 93.6074 85.6094C92.8457 84.7305 92.2656 83.7051 91.8672 82.5332C91.4688 81.3496 91.2695 80.0664 91.2695 78.6836ZM96.332 78.3145V78.6836C96.332 79.4805 96.4023 80.2246 96.543 80.916C96.6836 81.6074 96.9062 82.2168 97.2109 82.7441C97.5273 83.2598 97.9375 83.6641 98.4414 83.957C98.9453 84.25 99.5605 84.3965 100.287 84.3965C100.99 84.3965 101.594 84.25 102.098 83.957C102.602 83.6641 103.006 83.2598 103.311 82.7441C103.615 82.2168 103.838 81.6074 103.979 80.916C104.131 80.2246 104.207 79.4805 104.207 78.6836V78.3145C104.207 77.541 104.131 76.8145 103.979 76.1348C103.838 75.4434 103.609 74.834 103.293 74.3066C102.988 73.7676 102.584 73.3457 102.08 73.041C101.576 72.7363 100.967 72.584 100.252 72.584C99.5371 72.584 98.9277 72.7363 98.4238 73.041C97.9316 73.3457 97.5273 73.7676 97.2109 74.3066C96.9062 74.834 96.6836 75.4434 96.543 76.1348C96.4023 76.8145 96.332 77.541 96.332 78.3145ZM112.398 61H117.461V83.6406L116.951 88H112.398V61ZM129.502 78.2969V78.666C129.502 80.084 129.35 81.3848 129.045 82.5684C128.752 83.752 128.295 84.7773 127.674 85.6445C127.053 86.5 126.279 87.168 125.354 87.6484C124.439 88.1172 123.361 88.3516 122.119 88.3516C120.959 88.3516 119.951 88.1172 119.096 87.6484C118.252 87.1797 117.543 86.5176 116.969 85.6621C116.395 84.8066 115.932 83.8047 115.58 82.6562C115.229 81.5078 114.965 80.2539 114.789 78.8945V78.0859C114.965 76.7266 115.229 75.4727 115.58 74.3242C115.932 73.1758 116.395 72.1738 116.969 71.3184C117.543 70.4629 118.252 69.8008 119.096 69.332C119.939 68.8633 120.936 68.6289 122.084 68.6289C123.338 68.6289 124.428 68.8691 125.354 69.3496C126.291 69.8184 127.064 70.4863 127.674 71.3535C128.295 72.209 128.752 73.2285 129.045 74.4121C129.35 75.584 129.502 76.8789 129.502 78.2969ZM124.439 78.666V78.2969C124.439 77.5234 124.381 76.7969 124.264 76.1172C124.158 75.4258 123.971 74.8223 123.701 74.3066C123.432 73.7793 123.062 73.3633 122.594 73.0586C122.137 72.7539 121.545 72.6016 120.818 72.6016C120.127 72.6016 119.541 72.7188 119.061 72.9531C118.58 73.1875 118.182 73.5156 117.865 73.9375C117.561 74.3594 117.332 74.8633 117.18 75.4492C117.027 76.0234 116.934 76.6562 116.898 77.3477V79.6504C116.934 80.5762 117.086 81.3965 117.355 82.1113C117.637 82.8145 118.059 83.3711 118.621 83.7812C119.195 84.1797 119.939 84.3789 120.854 84.3789C121.568 84.3789 122.16 84.2383 122.629 83.957C123.098 83.6758 123.461 83.2773 123.719 82.7617C123.988 82.2461 124.176 81.6426 124.281 80.9512C124.387 80.248 124.439 79.4863 124.439 78.666ZM143.318 80.1426V62.4062H148.574V80.1426C148.574 81.8535 148.199 83.3242 147.449 84.5547C146.699 85.7734 145.674 86.7109 144.373 87.3672C143.084 88.0234 141.631 88.3516 140.014 88.3516C138.338 88.3516 136.855 88.0703 135.566 87.5078C134.277 86.9453 133.264 86.084 132.525 84.9238C131.787 83.752 131.418 82.2695 131.418 80.4766H136.709C136.709 81.4141 136.838 82.1582 137.096 82.709C137.365 83.2598 137.746 83.6523 138.238 83.8867C138.73 84.1211 139.322 84.2383 140.014 84.2383C140.682 84.2383 141.262 84.0801 141.754 83.7637C142.246 83.4473 142.627 82.9844 142.896 82.375C143.178 81.7656 143.318 81.0215 143.318 80.1426ZM151.949 78.6836V78.3145C151.949 76.9199 152.148 75.6367 152.547 74.4648C152.945 73.2812 153.525 72.2559 154.287 71.3887C155.049 70.5215 155.986 69.8477 157.1 69.3672C158.213 68.875 159.49 68.6289 160.932 68.6289C162.373 68.6289 163.656 68.875 164.781 69.3672C165.906 69.8477 166.85 70.5215 167.611 71.3887C168.385 72.2559 168.971 73.2812 169.369 74.4648C169.768 75.6367 169.967 76.9199 169.967 78.3145V78.6836C169.967 80.0664 169.768 81.3496 169.369 82.5332C168.971 83.7051 168.385 84.7305 167.611 85.6094C166.85 86.4766 165.912 87.1504 164.799 87.6309C163.686 88.1113 162.408 88.3516 160.967 88.3516C159.525 88.3516 158.242 88.1113 157.117 87.6309C156.004 87.1504 155.061 86.4766 154.287 85.6094C153.525 84.7305 152.945 83.7051 152.547 82.5332C152.148 81.3496 151.949 80.0664 151.949 78.6836ZM157.012 78.3145V78.6836C157.012 79.4805 157.082 80.2246 157.223 80.916C157.363 81.6074 157.586 82.2168 157.891 82.7441C158.207 83.2598 158.617 83.6641 159.121 83.957C159.625 84.25 160.24 84.3965 160.967 84.3965C161.67 84.3965 162.273 84.25 162.777 83.957C163.281 83.6641 163.686 83.2598 163.99 82.7441C164.295 82.2168 164.518 81.6074 164.658 80.916C164.811 80.2246 164.887 79.4805 164.887 78.6836V78.3145C164.887 77.541 164.811 76.8145 164.658 76.1348C164.518 75.4434 164.289 74.834 163.973 74.3066C163.668 73.7676 163.264 73.3457 162.76 73.041C162.256 72.7363 161.646 72.584 160.932 72.584C160.217 72.584 159.607 72.7363 159.104 73.041C158.611 73.3457 158.207 73.7676 157.891 74.3066C157.586 74.834 157.363 75.4434 157.223 76.1348C157.082 76.8145 157.012 77.541 157.012 78.3145ZM184.328 83.4473V68.9805H189.391V88H184.627L184.328 83.4473ZM184.891 79.5449L186.385 79.5098C186.385 80.7754 186.238 81.9531 185.945 83.043C185.652 84.1211 185.213 85.0586 184.627 85.8555C184.041 86.6406 183.303 87.2559 182.412 87.7012C181.521 88.1348 180.473 88.3516 179.266 88.3516C178.34 88.3516 177.484 88.2227 176.699 87.9648C175.926 87.6953 175.258 87.2793 174.695 86.7168C174.145 86.1426 173.711 85.4102 173.395 84.5195C173.09 83.6172 172.938 82.5332 172.938 81.2676V68.9805H178V81.3027C178 81.8652 178.064 82.3398 178.193 82.7266C178.334 83.1133 178.527 83.4297 178.773 83.6758C179.02 83.9219 179.307 84.0977 179.635 84.2031C179.975 84.3086 180.35 84.3613 180.76 84.3613C181.803 84.3613 182.623 84.1504 183.221 83.7285C183.83 83.3066 184.258 82.7324 184.504 82.0059C184.762 81.2676 184.891 80.4473 184.891 79.5449ZM198.32 73.1289V88H193.258V68.9805H198.021L198.32 73.1289ZM204.051 68.8574L203.963 73.5508C203.717 73.5156 203.418 73.4863 203.066 73.4629C202.727 73.4277 202.416 73.4102 202.135 73.4102C201.42 73.4102 200.799 73.5039 200.271 73.6914C199.756 73.8672 199.322 74.1309 198.971 74.4824C198.631 74.834 198.373 75.2617 198.197 75.7656C198.033 76.2695 197.939 76.8438 197.916 77.4883L196.896 77.1719C196.896 75.9414 197.02 74.8105 197.266 73.7793C197.512 72.7363 197.869 71.8281 198.338 71.0547C198.818 70.2812 199.404 69.6836 200.096 69.2617C200.787 68.8398 201.578 68.6289 202.469 68.6289C202.75 68.6289 203.037 68.6523 203.33 68.6992C203.623 68.7344 203.863 68.7871 204.051 68.8574ZM211.398 73.041V88H206.336V68.9805H211.082L211.398 73.041ZM210.66 77.8223H209.289C209.289 76.416 209.471 75.1504 209.834 74.0254C210.197 72.8887 210.707 71.9219 211.363 71.125C212.02 70.3164 212.799 69.7012 213.701 69.2793C214.615 68.8457 215.635 68.6289 216.76 68.6289C217.65 68.6289 218.465 68.7578 219.203 69.0156C219.941 69.2734 220.574 69.6836 221.102 70.2461C221.641 70.8086 222.051 71.5527 222.332 72.4785C222.625 73.4043 222.771 74.5352 222.771 75.8711V88H217.674V75.8535C217.674 75.0098 217.557 74.3535 217.322 73.8848C217.088 73.416 216.742 73.0879 216.285 72.9004C215.84 72.7012 215.289 72.6016 214.633 72.6016C213.953 72.6016 213.361 72.7363 212.857 73.0059C212.365 73.2754 211.955 73.6504 211.627 74.1309C211.311 74.5996 211.07 75.1504 210.906 75.7832C210.742 76.416 210.66 77.0957 210.66 77.8223ZM235.375 88.3516C233.898 88.3516 232.574 88.1172 231.402 87.6484C230.23 87.168 229.234 86.5059 228.414 85.6621C227.605 84.8184 226.984 83.8398 226.551 82.7266C226.117 81.6016 225.9 80.4062 225.9 79.1406V78.4375C225.9 76.9961 226.105 75.6777 226.516 74.4824C226.926 73.2871 227.512 72.25 228.273 71.3711C229.047 70.4922 229.984 69.8184 231.086 69.3496C232.188 68.8691 233.43 68.6289 234.812 68.6289C236.16 68.6289 237.355 68.8516 238.398 69.2969C239.441 69.7422 240.314 70.375 241.018 71.1953C241.732 72.0156 242.271 73 242.635 74.1484C242.998 75.2852 243.18 76.5508 243.18 77.9453V80.0547H228.062V76.6797H238.205V76.293C238.205 75.5898 238.076 74.9629 237.818 74.4121C237.572 73.8496 237.197 73.4043 236.693 73.0762C236.189 72.748 235.545 72.584 234.76 72.584C234.092 72.584 233.518 72.7305 233.037 73.0234C232.557 73.3164 232.164 73.7266 231.859 74.2539C231.566 74.7812 231.344 75.4023 231.191 76.1172C231.051 76.8203 230.98 77.5938 230.98 78.4375V79.1406C230.98 79.9023 231.086 80.6055 231.297 81.25C231.52 81.8945 231.83 82.4512 232.229 82.9199C232.639 83.3887 233.131 83.752 233.705 84.0098C234.291 84.2676 234.953 84.3965 235.691 84.3965C236.605 84.3965 237.455 84.2207 238.24 83.8691C239.037 83.5059 239.723 82.9609 240.297 82.2344L242.758 84.9062C242.359 85.4805 241.814 86.0312 241.123 86.5586C240.443 87.0859 239.623 87.5195 238.662 87.8594C237.701 88.1875 236.605 88.3516 235.375 88.3516ZM251.459 85.8555L256.504 68.9805H261.936L254.289 90.8652C254.125 91.3457 253.902 91.8613 253.621 92.4121C253.352 92.9629 252.982 93.4844 252.514 93.9766C252.057 94.4805 251.477 94.8906 250.773 95.207C250.082 95.5234 249.232 95.6816 248.225 95.6816C247.744 95.6816 247.352 95.6523 247.047 95.5938C246.742 95.5352 246.379 95.4531 245.957 95.3477V91.6387C246.086 91.6387 246.221 91.6387 246.361 91.6387C246.502 91.6504 246.637 91.6562 246.766 91.6562C247.434 91.6562 247.979 91.5801 248.4 91.4277C248.822 91.2754 249.162 91.041 249.42 90.7246C249.678 90.4199 249.883 90.0215 250.035 89.5293L251.459 85.8555ZM249.35 68.9805L253.48 82.7617L254.201 88.123L250.756 88.4922L243.918 68.9805H249.35Z" fill="black"/>
</svg>
